<?xml version="1.0" encoding="utf-8"?>
<!-- Generator: Adobe Illustrator 21.0.0, SVG Export Plug-In . SVG Version: 6.00 Build 0)  -->
<svg version="1.1" id="Camada_1" xmlns="http://www.w3.org/2000/svg" xmlns:xlink="http://www.w3.org/1999/xlink" x="0px" y="0px"
	 viewBox="0 0 1819 591" style="enable-background:new 0 0 1819 591;" xml:space="preserve">
<style type="text/css">
	.st0{fill-rule:evenodd;clip-rule:evenodd;fill:#F8866C;}
	.st1{fill:#161616;}
	.st2{fill:#F8866C;}
	.st3{fill-rule:evenodd;clip-rule:evenodd;fill:#D9ABA3;}
</style>
<path class="st0" d="M1663,320c-1.1,2.1,0.6,4.6,2.8,5.2c1.8,0.5,3.4-0.6,4.6-1.9c27.9-29.6,56.7-92.7,56.7-92.7
	c5.8-9.4,3.2-21.7-5.7-27.3c-8.9-5.7-20.8-2.6-26.5,6.8c-1,1.6-2,3.4-2.3,5.2C1687.8,242.1,1688.4,271.4,1663,320z"/>
<path class="st0" d="M1686,338.3c-1.9,1.4-1.4,4.4,0.3,5.9c1.4,1.2,3.3,0.9,5,0.2c37.9-14.8,91-59.5,91-59.5
	c9.2-6.1,12.2-18.2,6.6-27.1c-5.6-8.9-17.6-11.3-26.9-5.3c-1.6,1.1-3.2,2.3-4.3,3.8C1741.7,278.5,1729.7,305.2,1686,338.3z"/>
<path class="st0" d="M1693.2,364c-2.3,0.6-3,3.6-2,5.6c0.9,1.7,2.7,2.1,4.6,2.1c40.7,0.5,106.6-21,106.6-21
	c10.8-2.1,18.1-12.3,16.3-22.7c-1.8-10.4-12.1-17.1-23-15c-1.9,0.4-3.9,0.9-5.4,1.9C1767.4,329.5,1746.2,349.7,1693.2,364z"/>
<g>
	<path class="st1" d="M970.3,253.4c-8-4.9-14.8-3.7-20.4,3.7c-6.2,6.8-9.4,13.9-9.7,21.3c-0.3,7.4,2,13,6.9,16.7
		c4.9,3.7,10.8,4.3,17.6,1.9c2.5-1.2,4.6-3.8,6.5-7.9c1.9-4,3.1-8.3,3.7-13c0.6-4.6,0.6-9.1,0-13.4
		C974.3,258.4,972.8,255.3,970.3,253.4z"/>
	<path class="st1" d="M1695.2,434.9c-1.8,0-3.7,1.1-5.6,3.2c-1.9,2.2-4.6,6.6-8.3,13.4c-5.6,10.5-12.4,19.8-20.4,27.8
		c-8,8-15.1,13-21.3,14.8c-3.7,1.2-6.5,1.7-8.3,1.4c-1.8-0.3-4.3-1.4-7.4-3.2c-1.8-0.6-3.7-1.5-5.6-2.8c-1.9-1.2-2.8-2.5-2.8-3.7
		c-0.6-1.2-0.2-3.4,1.4-6.5c1.5-3.1,3.5-6.5,6-10.2c3.1-3.7,6-8.6,8.8-14.8c2.8-6.2,5.4-11.7,7.9-16.7c11.7-27.8,16-50,13-66.7
		c-3.1-16.7-13-25-29.6-25c-14.2,0-26.4,6.3-36.6,19c-10.2,12.7-16.8,30.7-19.9,54.2c-3.1,22.2-0.6,41.1,7.4,56.5l6.5,14.8l-7.4,3.7
		c-7.4,2.5-15.1,0.8-23.1-5.1c-8-5.9-12.7-13.1-13.9-21.8c-2.5-11.1-2-24.2,1.4-39.3c3.4-15.1,8.5-27.3,15.3-36.6
		c1.9-3.1,3.5-5.9,5.1-8.3c1.5-2.5,2.3-4.3,2.3-5.6c0-7.4-5.3-11.1-15.7-11.1c-3.1,0-6,0.8-8.8,2.3c-2.8,1.5-6.6,4.8-11.6,9.7
		c-10.5,11.1-18.1,25.6-22.7,43.5c-1.5,5.8-2.5,11.5-3,17.1c-1.5,3.1-3.5,7.4-5.8,13c-2.5,5.9-5.6,13.7-9.3,23.6
		c-17.3,45.1-31.8,73.8-43.5,86.1c-4.9,5.6-8.5,8.5-10.6,8.8c-2.2,0.3-4.8-2-7.9-6.9c-4.3-4.9-6.2-17.4-5.6-37.5
		c0.6-20,3.4-43.7,8.3-70.8c7.4-43.2,9.3-70,5.6-80.5c-6.8-17.3-19.1-20.4-37-9.3c-10.5,6.8-23.6,19.9-39.3,39.3
		c-15.7,19.4-32.3,42.1-49.5,68c-11.1,18.5-16.1,25-14.8,19.4c0-1.9,0.6-6.2,1.9-13c1.2-6.8,2.5-14.5,3.7-23.1
		c1.8-10.5,3.4-18.2,4.6-23.1c1.2-4.9,2.5-8,3.7-9.3c1.2-1.2,4-3.4,8.3-6.5c4.3-3.1,8.9-6.5,13.9-10.2c6.2-4.3,13.1-10,20.8-17.1
		c7.7-7.1,15.6-14.8,23.6-23.1c8-8.3,15.7-16.8,23.1-25.5c7.4-8.6,13.6-16.3,18.5-23.1c22.2-31.5,36.3-60.9,42.1-88.4
		c5.9-27.5,3.2-52-7.9-73.6c-8.6-16-19.9-27.2-33.8-33.3c-13.9-6.2-27.3-5.2-40.3,2.8c-8.7,5.6-16.4,12.2-23.1,19.9
		c-6.8,7.7-13.6,18.1-20.4,31c-3.1,6.8-6.5,14.2-10.2,22.2c-3.7,8-6.2,14.5-7.4,19.4c-8,21.6-16.4,54-25,97.2
		c-7.8,39.2-16.4,89.1-25.8,149.6c-3.7,7.8-7.6,15.5-11.7,23c-5.9,10.8-11.6,20.4-17.1,28.7c-5.6,8.3-10.6,14.7-15.3,19
		c-4.6,4.3-7.9,5.6-9.7,3.7c-11.1-8.6-11.1-45,0-109.2c1.9-11.1,3.2-21.9,4.2-32.4c0.9-10.5,1.5-20.4,1.9-29.6
		c0.3-9.3,0.5-17.3,0.5-24.1c0-6.8-0.3-11.7-0.9-14.8c-3.7-10.5-9.9-16.8-18.5-19c-8.7-2.2-17.3,0.2-25.9,6.9
		c-20.4,16.1-48.1,52.2-83.3,108.3c-4.9,7.4-9,13.7-12,19c-3.1,5.2-4.9,7.9-5.6,7.9l1.9-16.7c1.9-11.7,2.5-22.8,1.9-33.3
		c-0.6-10.5-2.5-17.3-5.6-20.4c-6.2-6.2-13.3-5.9-21.3,0.9c-2.5,3.1-5.1,9.3-7.9,18.5c-2.8,9.3-5.1,19.4-6.9,30.5
		c-1.1,6.4-2,12.8-2.7,19.1c-3.8,9.1-8,18.3-12.5,27.7c-5.3,10.8-10.6,20.7-16.2,29.6c-5.6,9-11,16.7-16.2,23.1
		c-5.3,6.5-9.7,10.6-13.4,12.5c-3.1,2.5-5.4,3.7-6.9,3.7c-1.5,0-3.2-0.6-5.1-1.9c-16.7-11.1-17.9-52.1-3.7-123.1
		c4.9-23.4,7.7-40.1,8.3-50c0.6-9.9-0.9-16.7-4.6-20.4c-2.5-3.1-5.6-4.6-9.3-4.6s-7.1,1.2-10.2,3.7c-2.5,1.9-5.3,7.3-8.3,16.2
		c-3.1,9-6.3,19.4-9.7,31.5c-3.4,12-6.3,24.9-8.8,38.4c-0.5,2.9-1,5.7-1.4,8.4c-1.4,3.5-3.1,7.8-5,12.9
		c-17.9,43.8-33.9,73.6-48.1,89.3c-14.2,15.7-25,15.6-32.4-0.5c-2.5-5.6-4-12.6-4.6-21.3c-0.6-8.6,0-20.8,1.9-36.6
		c1.9-15.7,4.9-35.6,9.3-59.7c4.3-24.1,9.9-54,16.7-89.8c2.5-11.7,4.8-23,6.9-33.8c2.2-10.8,4.2-20.5,6-29.2
		c1.9-8.6,3.4-15.9,4.6-21.8c1.2-5.9,1.9-9.7,1.9-11.6c0-8,1.2-12.6,3.7-13.9c0.6-0.6,5.9-2,15.7-4.2c9.9-2.2,21.6-4.5,35.2-6.9
		c9.9-1.9,18.2-3.2,25-4.2c6.8-0.9,12.8-1.7,18.1-2.3c5.2-0.6,10-0.9,14.4-0.9c4.3,0,8.9,0,13.9,0c13,1.2,21.9,2.9,26.8,5.1
		c4.9,2.2,8.9,7.3,12,15.3c2.5,6.8,4.6,10.2,6.5,10.2c0.6-0.6,2.2-0.9,4.6-0.9c1.9,0,2.6-2.6,2.3-7.9c-0.3-5.2-2-10.3-5.1-15.3
		c-9.9-18.5-34-25.3-72.2-20.4c-4.3,0.6-10.6,1.7-19,3.2c-8.3,1.5-17.3,3.1-26.8,4.6c-9.6,1.5-18.8,3.1-27.8,4.6
		c-9,1.5-15.9,2.9-20.8,4.2c0,0.6-0.3-0.9-0.9-4.6c-0.6-3.7-0.9-8-0.9-13c-0.6-10.5-1.7-17.4-3.2-20.8c-1.5-3.4-4.5-5.1-8.8-5.1
		c-4.3,0-8,2.9-11.1,8.8c-3.1,5.9-7.7,19.3-13.9,40.3c0,1.2-3.7,2.6-11.1,4.2c-7.4,1.5-16.4,3.1-26.8,4.6
		c-10.5,1.5-21.8,2.9-33.8,4.2c-12,1.2-23,2.2-32.9,2.8c-17.9,0.6-31.2,0.3-39.8-0.9c-8.6-1.2-15.4-4.3-20.4-9.3
		c-3.1-3.1-5.1-5.7-6-7.9c-0.9-2.2-1.4-5.7-1.4-10.6c0-8-1.2-12.3-3.7-13c-3.1-1.2-5.6-0.1-7.4,3.2c-1.9,3.4-2.8,7.9-2.8,13.4
		c0,4.3,0.6,7.7,1.9,10.2c1.2,2.5,4,5.9,8.3,10.2c4.9,5.6,10.8,9.6,17.6,12c6.8,2.5,16.4,4.3,28.7,5.6c9.3,1.2,23.5,1.1,42.6-0.5
		c19.1-1.5,38-3.8,56.5-6.9c3.1-0.6,6.3-1.2,9.7-1.9c3.4-0.6,6.3-1.2,8.8-1.9c2.5-0.6,4.9-0.9,7.4-0.9c0,0.6-0.8,5.3-2.3,13.9
		c-1.5,8.6-3.9,19.1-6.9,31.5c-9.9,45.1-17.7,82.4-23.6,112c-5.6,28.1-9.3,51.6-11.3,70.5c-3.7,7.9-7.7,15.7-11.9,23.4
		c-5.9,10.8-11.6,20.4-17.1,28.7c-5.6,8.3-10.6,14.7-15.3,19c-4.6,4.3-7.9,5.6-9.7,3.7c-11.1-8.6-11.1-45,0-109.2
		c1.9-11.1,3.2-21.9,4.2-32.4c0.9-10.5,1.5-20.4,1.9-29.6c0.3-9.3,0.5-17.3,0.5-24.1c0-6.8-0.3-11.7-0.9-14.8
		c-3.7-10.5-9.9-16.8-18.5-19c-8.7-2.2-17.3,0.2-25.9,6.9c-20.4,16.1-48.1,52.2-83.3,108.3c-4.9,7.4-9,13.7-12,19
		c-3.1,5.2-4.9,7.9-5.6,7.9l1.9-16.7c1.9-11.7,2.5-22.8,1.9-33.3c-0.6-10.5-2.5-17.3-5.6-20.4c-6.2-6.2-13.3-5.9-21.3,0.9
		c-2.5,3.1-5.1,9.3-7.9,18.5c-2.8,9.3-5.1,19.4-6.9,30.5c-0.7,4.4-1.4,8.8-2,13.2c-2.8,6.3-6.8,15.5-11.9,27.6
		c-19.8,50-35.2,79.9-46.3,89.8c-4.9,4.3-8.3,5.7-10.2,4.2c-1.9-1.5-4.3-6.6-7.4-15.3c-2.5-8.6-3.4-18.8-2.8-30.6
		c0.6-11.7,3.1-27.8,7.4-48.1c3.7-17.9,5.6-30.6,5.6-38c0-7.4-1.5-12.6-4.6-15.7c-1.9-3.1-4.3-4.6-7.4-4.6c-3.1,0-7.1,3.9-12,11.6
		c-4.9,7.7-12.4,21.5-22.2,41.2c-21,40.7-35.2,59.9-42.6,57.4c-7.4-2.5-9.6-17-6.5-43.5c1.9-16.7,4.9-32.1,9.3-46.3
		c4.3-14.2,9.3-26.5,14.8-37c5.6-10.5,11.6-18.5,18.1-24.1c6.5-5.6,12.8-7.7,19-6.5c4.9,1.2,9.3,4,13,8.3c3.7,4.3,6.2,9.3,7.4,14.8
		c1.2,6.2,3.7,9.3,7.4,9.3c3.1,0,4.8-0.5,5.1-1.4c0.3-0.9,0.5-3.8,0.5-8.8c-0.6-14.8-6.6-26.2-18.1-34.3c-11.4-8-24.2-9.9-38.4-5.6
		c-16.7,3.7-31.5,15.7-44.4,36.1c-13.8,20.6-22.8,41.9-27.1,63.9c-2.7,4.4-5.7,9-9,13.8c-5.6,8-11.6,16.2-18.1,24.5
		c-6.5,8.3-13.1,16.4-19.9,24.1c-6.8,7.7-13,14.3-18.5,19.9c-12.4,11.7-25.3,20.8-38.9,27.3c-13.6,6.5-24.4,9.1-32.4,7.9
		c-5.6-0.6-11.6-2.9-18.1-6.9c-6.5-4-13-8.6-19.4-13.9c-6.5-5.2-12.5-11.1-18.1-17.6c-5.6-6.5-9.9-12.5-13-18.1
		c-3.7-6.2-6.6-12.5-8.8-19c-2.2-6.5-3.9-13.6-5.1-21.3c-1.2-7.7-2.2-16.8-2.8-27.3c-0.6-10.5-0.9-22.8-0.9-37
		c0-13,0.1-23.4,0.5-31.5c0.3-8,0.8-15.1,1.4-21.3c0.6-6.2,1.7-12.3,3.2-18.5c1.5-6.2,3.8-13.9,6.9-23.1l2.8-12l24.1-1.9
		c59.9-3.7,114.2-24.1,162.9-61.1c27.2-20.4,49.7-42.6,67.6-66.7c17.9-24.1,29.9-48.1,36.1-72.2c7.4-29,5.4-52.6-6-70.8
		C419.7,8.9,401-0.2,375.1-0.2c-10.5,0-19.8,0.9-27.8,2.8c-8,1.9-18.2,5.9-30.6,12c-22.8,11.1-45.7,27.5-68.5,49.1
		c-22.8,21.6-42.9,46.3-60.2,74.1c-4.9,7.4-10.3,16.7-16.2,27.8c-5.9,11.1-11.6,22.5-17.1,34.3c-5.6,11.7-10.8,23-15.7,33.8
		c-4.9,10.8-8.7,19.9-11.1,27.3l-9.3,24.1l-7.4-1.9c-25.9-3.1-48.9-10.5-69-22.2c-24-14.1-36.2-48-41-45.6c-1,0.5-1.1,2.3-1.1,3.9
		c0,23.1,12,38.9,12,38.9s16.2,21.2,64.8,34.3c9.2,2.5,14.8,3.2,14.8,3.2c4.9,0.9,8.3,1.4,10.2,1.4c6.2,0,9.7,0.9,10.6,2.8
		c0.9,1.9,0.1,8-2.3,18.5c-5.6,24.1-9.1,47.7-10.6,70.8c-1.5,23.1-1.1,44.9,1.4,65.3c2.5,20.4,6.9,38.9,13.4,55.5
		c6.5,16.7,14.7,30.6,24.5,41.7c6.2,6.8,12,12,17.6,15.7c5.6,3.7,13,7.7,22.2,12c5.6,2.5,10.5,4,14.8,4.6c4.3,0.6,11.7,0.6,22.2,0
		c5.6,0,10.2-0.1,13.9-0.5c3.7-0.3,6.9-0.8,9.7-1.4c2.8-0.6,5.6-1.5,8.3-2.8c2.8-1.2,6.6-3.1,11.6-5.6c8.6-4.3,15.6-8.5,20.8-12.5
		c5.2-4,13.1-11.3,23.6-21.8c11.1-11.1,21.6-22.8,31.5-35.2c6.2-7.8,11.7-15.1,16.5-22.1c0,1.8,0.1,3.6,0.2,5.4
		c0.6,8.6,1.2,15,1.9,19c0.6,4,2.5,8.5,5.6,13.4c9.3,16.1,20.1,24.1,32.4,24.1c8,0,15.1-3.5,21.3-10.6c6.2-7.1,14.5-19.9,25-38.4
		c4.3-6.8,6.9-10.6,7.9-11.6c0.9-0.9,1.1,0.2,0.5,3.2c-5.6,43.8,0,74.1,16.7,90.7c3.1,3.1,5.7,5.1,7.9,6c2.2,0.9,5.4,1.4,9.7,1.4
		c4.9,0,8.5-0.6,10.6-1.9c2.2-1.2,5.7-4.3,10.6-9.3c6.2-6.8,13.9-19.3,23.1-37.5c7.7-15.1,15-31.5,21.8-49c0.1,0.8,0.3,1.5,0.4,2.2
		c3.7,19.8,11.4,29.6,23.1,29.6c8.6,0,16.7-8.6,24.1-25.9c6.8-16.7,14.8-33.6,24.1-50.9c9.3-17.3,18.7-33.2,28.2-47.7
		c9.6-14.5,18.8-26.8,27.8-37c8.9-10.2,16.2-16.8,21.8-19.9c1.9-1.2,3.2-1.9,4.2-1.9s1.4,1.4,1.4,4.2c0,2.8-0.6,7.7-1.9,14.8
		c-1.2,7.1-3.1,17.1-5.6,30.1c-4.9,27.2-7.9,52.3-8.8,75.5c-0.9,23.1,0.1,40.3,3.2,51.4c3.1,10.5,6.6,19.9,10.6,28.2
		c4,8.3,8.5,14,13.4,17.1c11.7,8,23.3,6.6,34.7-4.2c9.4-8.9,20.5-26.2,33.1-51.8c0.1,5.2,0.3,10,0.7,14.3
		c1.2,12.4,4.3,23.5,9.3,33.3c7.4,16.1,17.3,25.3,29.6,27.8c13,3.7,24.1,2.2,33.3-4.6c9.3-6.8,19.7-20.4,31.5-40.7
		c3.7-6.2,7.9-14.3,12.5-24.5c1.9-4.2,3.8-8.4,5.6-12.5c0.6,12.6,2.9,24.1,6.9,34.8c6.2,16.4,15.4,28.2,27.8,35.6
		c6.8,4.3,14,5.6,21.8,3.7c7.7-1.9,15-6.5,21.8-13.9c6.8-6.8,15.3-19.3,25.5-37.5c5.5-9.9,11-20.5,16.4-31.7
		c0.2,1.6,0.4,3.1,0.7,4.4c3.7,19.8,11.4,29.6,23.1,29.6c8.6,0,16.7-8.6,24.1-25.9c6.8-16.7,14.8-33.6,24.1-50.9
		c9.3-17.3,18.7-33.2,28.2-47.7c9.6-14.5,18.8-26.8,27.8-37c8.9-10.2,16.2-16.8,21.8-19.9c1.9-1.2,3.2-1.9,4.2-1.9
		c0.9,0,1.4,1.4,1.4,4.2c0,2.8-0.6,7.7-1.9,14.8c-1.2,7.1-3.1,17.1-5.6,30.1c-4.9,27.2-7.9,52.3-8.8,75.5
		c-0.9,23.1,0.1,40.3,3.2,51.4c3.1,10.5,6.6,19.9,10.6,28.2c4,8.3,8.5,14,13.4,17.1c11.7,8,23.3,6.6,34.7-4.2
		c8.2-7.8,17.6-21.9,28.2-42.3c0,0,0,0.1,0,0.1c-0.6,6.8-0.6,12.2,0,16.2c0.6,4,1.5,6.8,2.8,8.3c1.2,1.5,3.4,2.9,6.5,4.2
		c6.2,2.5,12,0.9,17.6-4.6c5.6-5.6,15.4-19.1,29.6-40.7c14.2-21.6,27.3-40.6,39.3-56.9c12-16.3,22.4-29.2,31-38.4
		c5.6-6.2,10.9-11.1,16.2-14.8c5.2-3.7,7.9-4.3,7.9-1.9c0,0.6-0.8,5.7-2.3,15.3c-1.5,9.6-3.9,21.1-6.9,34.7
		c-3.1,17.3-5.6,31.6-7.4,43.1c-1.9,11.4-3.2,21-4.2,28.7c-0.9,7.7-1.4,13.9-1.4,18.5s0.6,9.1,1.9,13.4c2.5,12.4,6.3,23.3,11.6,32.9
		c5.2,9.6,11.3,15.9,18.1,19c6.2,3.1,12.2,4,18.1,2.8c5.9-1.2,11.7-5.2,17.6-12c5.9-6.8,11.9-16.7,18.1-29.6
		c6.2-13,13.3-29.6,21.3-50c2.5-5.6,5.1-12.2,7.9-19.9c1.5-4.2,3.1-8.1,4.7-11.7c0.4,1.6,0.8,3.2,1.3,4.7c2.5,7.4,6.8,14.7,13,21.8
		c6.2,7.1,13.3,12.5,21.3,16.2c6.8,3.1,14.5,4.6,23.1,4.6c8.6,0,16.7-1.5,24.1-4.6c4.9-3.1,8.3-4.6,10.2-4.6s4.9,1.2,9.3,3.7
		c14.2,6.2,28.4,6.2,42.6,0c8-3.7,15.3-9.1,21.8-16.2c6.5-7.1,13.7-17.1,21.8-30.1c6.8-11.1,10.6-18.5,11.6-22.2
		C1701.2,436.7,1699.5,434.9,1695.2,434.9z M1306.8,378.9c2.2-12.6,4.6-26.8,7.4-42.6c2.8-15.7,5.6-30.9,8.3-45.4
		c2.8-14.5,4.8-25.1,6-31.9c9.9-38.9,21.4-69.1,34.7-90.7c13.3-21.6,26.4-31.2,39.3-28.7c5.6,1.2,11,4.3,16.2,9.3
		c5.2,4.9,9.7,11,13.4,18.1c3.7,7.1,6.3,15,7.9,23.6c1.5,8.7,1.7,17,0.5,25c-3.1,23.5-11.3,46.6-24.5,69.4
		c-13.3,22.8-32.9,47.2-58.8,73.1c-17.3,17.3-30.5,29.6-39.8,37c-9.3,7.4-13.9,9.6-13.9,6.5C1303.6,399.1,1304.7,391.5,1306.8,378.9
		z M154.7,273.8c2.5-6.2,5.4-13.3,8.8-21.3c3.4-8,7.1-16.5,11.1-25.5c4-8.9,7.6-16.8,10.6-23.6c6.8-13.6,15-27.9,24.5-43.1
		c9.6-15.1,19.1-29.5,28.7-43c9.6-13.6,19.1-25.8,28.7-36.6c9.6-10.8,17.7-18.7,24.5-23.6c6.2-4.9,13.9-9.7,23.1-14.4
		c9.3-4.6,18.5-8.8,27.8-12.5c9.3-3.7,18.4-6.6,27.3-8.8c8.9-2.2,16.2-3.2,21.8-3.2c9.9,0,18.1,4.6,24.5,13.9
		c6.5,9.3,9.7,21,9.7,35.2c0,13-2.9,27-8.8,42.1c-5.9,15.1-13.7,30.1-23.6,44.9c-9.9,14.8-21.6,29.2-35.2,43
		c-13.6,13.9-28.1,26.1-43.5,36.6c-33.3,22.2-69.4,37-108.3,44.4c-6.2,1.2-12.5,2.3-19,3.2c-6.5,0.9-12.5,1.5-18.1,1.9
		c-5.6,0.3-10,0.6-13.4,0.9c-3.4,0.3-5.1,0.2-5.1-0.5C151,283.4,152.3,280,154.7,273.8z M1604.5,465.4c-1.2-3.7-2-8.9-2.3-15.7
		c-0.3-6.8-0.3-13.9,0-21.3c0.3-7.4,1.2-14.5,2.8-21.3c1.5-6.8,3.2-12.6,5.1-17.6c5.6-12.3,11.3-19.1,17.1-20.4
		c5.9-1.2,9.7,3.7,11.6,14.8c1.9,13-2.8,30.9-13.9,53.7c-3.1,6.2-6,11.7-8.8,16.7c-2.8,4.9-4.8,8-6,9.3
		C1606.9,467.9,1605.1,468.5,1604.5,465.4z"/>
</g>
<g>
	<path class="st2" d="M494.5,109.4h48.7v9.5h-59.4V14.3h10.6V109.4z"/>
	<path class="st2" d="M658.1,66.6c0,8-1.4,15.3-4.1,22c-2.8,6.7-6.6,12.5-11.4,17.4c-4.9,4.9-10.6,8.7-17.3,11.4
		c-6.6,2.8-13.9,4.1-21.6,4.1c-7.8,0-15-1.4-21.6-4.1c-6.6-2.8-12.4-6.6-17.3-11.4c-4.9-4.9-8.7-10.7-11.4-17.4
		c-2.8-6.7-4.1-14-4.1-22c0-8,1.4-15.3,4.1-22c2.8-6.7,6.6-12.5,11.4-17.4c4.9-4.9,10.6-8.7,17.3-11.4c6.6-2.8,13.9-4.1,21.6-4.1
		c7.8,0,15,1.4,21.6,4.1c6.6,2.8,12.4,6.6,17.3,11.4c4.9,4.9,8.7,10.7,11.4,17.4C656.8,51.3,658.1,58.6,658.1,66.6z M646.9,66.7
		c0-6.1-1-11.9-3-17.4c-2-5.5-4.8-10.3-8.6-14.5c-3.7-4.2-8.3-7.5-13.7-10c-5.4-2.5-11.4-3.7-18.1-3.7c-6.7,0-12.7,1.2-18.1,3.7
		c-5.4,2.5-9.9,5.8-13.7,10c-3.7,4.2-6.6,9-8.6,14.5c-2,5.5-3,11.3-3,17.4c0,6.1,1,11.9,3,17.4c2,5.5,4.8,10.3,8.6,14.4
		c3.7,4.1,8.3,7.4,13.7,9.9c5.4,2.5,11.4,3.7,18.1,3.7c6.7,0,12.7-1.2,18.1-3.7c5.4-2.5,9.9-5.8,13.7-9.9c3.7-4.1,6.6-8.9,8.6-14.4
		C645.9,78.6,646.9,72.8,646.9,66.7z"/>
	<path class="st2" d="M674.7,97.5c0.8,4.1,2.6,7.6,5.5,10.4c2.9,2.8,6.7,4.2,11.4,4.2c3.6,0,6.6-0.7,9-2s4.3-3.1,5.7-5.4
		c1.4-2.3,2.4-4.8,3-7.7c0.5-2.9,0.8-5.9,0.8-9.1V14.3h10.6v74.4c0,3.4-0.4,7.1-1.1,10.9c-0.7,3.8-2.1,7.4-4.2,10.6
		c-2.1,3.2-4.9,5.9-8.6,8c-3.6,2.1-8.3,3.2-14,3.2c-7.6,0-13.8-2-18.8-6.1c-4.9-4-8-9.2-9.3-15.4L674.7,97.5z"/>
	<path class="st2" d="M745.1,118.9h-11.7l45.2-104.6H789l44.9,104.6h-11.8l-11.5-27.5h-54L745.1,118.9z M760.5,81.7h46.1l-23-55.5
		L760.5,81.7z"/>
	<path class="st2" d="M899.9,31.2c-2.3-3.1-5.2-5.7-8.7-7.6c-3.5-1.9-7.8-2.9-12.8-2.9c-2.6,0-5.2,0.4-7.8,1.2
		c-2.7,0.8-5.1,2-7.2,3.6c-2.2,1.6-3.9,3.7-5.2,6.1c-1.3,2.5-2,5.4-2,8.7c0,3.3,0.6,6.1,1.9,8.3c1.3,2.2,3,4,5.1,5.5
		c2.1,1.5,4.5,2.8,7.2,3.8c2.7,1,5.5,2,8.5,3c3.6,1.2,7.3,2.5,11,3.8c3.7,1.4,7,3.2,9.9,5.4c2.9,2.2,5.4,5,7.2,8.4
		c1.9,3.4,2.8,7.7,2.8,12.9c0,5.2-1,9.7-3,13.5c-2,3.8-4.6,6.9-7.8,9.4c-3.2,2.5-6.8,4.3-10.9,5.5c-4.1,1.2-8.2,1.8-12.3,1.8
		c-3.2,0-6.3-0.3-9.5-1c-3.2-0.6-6.2-1.6-9-2.9c-2.9-1.3-5.5-2.9-8-4.9c-2.5-2-4.6-4.2-6.5-6.8l9.2-6.8c2.3,3.7,5.4,6.9,9.5,9.4
		c4.1,2.5,8.9,3.8,14.4,3.8c2.7,0,5.4-0.4,8.1-1.3c2.8-0.8,5.2-2.1,7.5-3.8c2.2-1.7,4-3.8,5.5-6.4c1.4-2.5,2.1-5.4,2.1-8.8
		c0-3.6-0.7-6.7-2.1-9.1c-1.4-2.4-3.3-4.4-5.7-6.1s-5.1-3-8.1-4.1c-3.1-1.1-6.3-2.2-9.6-3.2c-3.4-1.1-6.8-2.3-10.2-3.7
		c-3.3-1.4-6.4-3.2-9-5.4c-2.7-2.2-4.8-4.9-6.4-8.2c-1.6-3.2-2.4-7.2-2.4-12c0-5,1-9.4,3-13c2-3.6,4.7-6.6,7.9-9
		c3.2-2.4,6.8-4.1,10.8-5.2c3.9-1.1,7.8-1.6,11.7-1.6c7.1,0,13.1,1.3,18.2,3.8c5,2.5,8.8,5.5,11.4,8.9L899.9,31.2z"/>
</g>
<g>
	<path class="st3" d="M-643,320c-1.1,2.1,0.6,4.6,2.8,5.2c1.8,0.5,3.4-0.6,4.6-1.9c27.9-29.6,56.7-92.7,56.7-92.7
		c5.8-9.4,3.2-21.7-5.7-27.3c-8.9-5.7-20.8-2.6-26.5,6.8c-1,1.6-2,3.4-2.3,5.2C-618.2,242.1-617.6,271.4-643,320z"/>
	<path class="st3" d="M-620,338.3c-1.9,1.4-1.4,4.4,0.3,5.9c1.4,1.2,3.3,0.9,5,0.2c37.9-14.8,91-59.5,91-59.5
		c9.2-6.1,12.2-18.2,6.6-27.1c-5.6-8.9-17.6-11.3-26.9-5.3c-1.6,1.1-3.2,2.3-4.3,3.8C-564.3,278.5-576.3,305.2-620,338.3z"/>
	<path class="st3" d="M-612.8,364c-2.3,0.6-3,3.6-2,5.6c0.9,1.7,2.7,2.1,4.6,2.1c40.7,0.5,106.6-21,106.6-21
		c10.8-2.1,18.1-12.3,16.3-22.7c-1.8-10.4-12.1-17.1-23-15c-1.9,0.4-3.9,0.9-5.4,1.9C-538.6,329.5-559.8,349.7-612.8,364z"/>
	<g>
		<path class="st1" d="M-2305.9,219.2c0-1.6,0.1-3.4,1.1-3.9c4.8-2.5,17,31.5,41,45.6c20,11.7,43,19.1,69,22.2l7.4,1.9l9.3-24.1
			c2.5-7.4,6.2-16.5,11.1-27.3c4.9-10.8,10.2-22.1,15.7-33.8c5.6-11.7,11.3-23.1,17.1-34.3c5.9-11.1,11.3-20.4,16.2-27.8
			c17.3-27.8,37.3-52.5,60.2-74.1c22.8-21.6,45.7-38,68.5-49.1c12.3-6.2,22.5-10.2,30.6-12c8-1.9,17.3-2.8,27.8-2.8
			c25.9,0,44.6,9.1,56,27.3c11.4,18.2,13.4,41.8,6,70.8c-6.2,24.1-18.2,48.1-36.1,72.2c-17.9,24.1-40.4,46.3-67.6,66.7
			c-48.8,37-103.1,57.4-162.9,61.1l-24.1,1.9l-2.8,12c-3.1,9.3-5.4,17-6.9,23.1c-1.5,6.2-2.6,12.4-3.2,18.5
			c-0.6,6.2-1.1,13.3-1.4,21.3c-0.3,8-0.5,18.5-0.5,31.5c0,14.2,0.3,26.5,0.9,37c0.6,10.5,1.5,19.6,2.8,27.3
			c1.2,7.7,2.9,14.8,5.1,21.3c2.2,6.5,5.1,12.8,8.8,19c3.1,5.6,7.4,11.6,13,18.1c5.6,6.5,11.6,12.4,18.1,17.6
			c6.5,5.3,13,9.9,19.4,13.9c6.5,4,12.5,6.3,18.1,6.9c8,1.2,18.8-1.4,32.4-7.9c13.6-6.5,26.5-15.6,38.9-27.3
			c5.6-5.6,11.7-12.2,18.5-19.9c6.8-7.7,13.4-15.7,19.9-24.1c6.5-8.3,12.5-16.5,18.1-24.5c5.6-8,10.2-15.4,13.9-22.2
			c3.7-7.4,6.5-10.5,8.3-9.3c4.3,1.2,5.6,5.4,3.7,12.5c-1.9,7.1-5.9,15.7-12,25.9c-6.2,10.2-14.2,21.5-24.1,33.8
			c-9.9,12.4-20.4,24.1-31.5,35.2c-10.5,10.5-18.4,17.7-23.6,21.8c-5.3,4-12.2,8.2-20.8,12.5c-4.9,2.5-8.8,4.3-11.6,5.6
			c-2.8,1.2-5.6,2.2-8.3,2.8c-2.8,0.6-6,1.1-9.7,1.4c-3.7,0.3-8.3,0.5-13.9,0.5c-10.5,0.6-17.9,0.6-22.2,0
			c-4.3-0.6-9.3-2.2-14.8-4.6c-9.3-4.3-16.7-8.3-22.2-12s-11.4-8.9-17.6-15.7c-9.9-11.1-18.1-25-24.5-41.7
			c-6.5-16.7-11-35.2-13.4-55.5c-2.5-20.4-2.9-42.1-1.4-65.3c1.5-23.1,5.1-46.8,10.6-70.8c2.5-10.5,3.2-16.7,2.3-18.5
			c-0.9-1.9-4.5-2.8-10.6-2.8c-1.9,0-5.2-0.5-10.2-1.4c0,0-5.6-0.8-14.8-3.2c-48.6-13.1-64.8-34.3-64.8-34.3
			S-2305.9,242.3-2305.9,219.2z M-1991.1,234c15.4-10.5,29.9-22.7,43.5-36.6c13.6-13.9,25.3-28.2,35.2-43
			c9.9-14.8,17.7-29.8,23.6-44.9c5.9-15.1,8.8-29.2,8.8-42.1c0-14.2-3.2-25.9-9.7-35.2c-6.5-9.3-14.7-13.9-24.5-13.9
			c-5.6,0-12.8,1.1-21.8,3.2c-9,2.2-18.1,5.1-27.3,8.8s-18.5,7.9-27.8,12.5c-9.3,4.6-17,9.4-23.1,14.4c-6.8,4.9-15,12.8-24.5,23.6
			c-9.6,10.8-19.1,23-28.7,36.6c-9.6,13.6-19.1,27.9-28.7,43c-9.6,15.1-17.7,29.5-24.5,43.1c-3.1,6.8-6.6,14.7-10.6,23.6
			c-4,9-7.7,17.4-11.1,25.5c-3.4,8-6.3,15.1-8.8,21.3c-2.5,6.2-3.7,9.6-3.7,10.2c0,0.6,1.7,0.8,5.1,0.5c3.4-0.3,7.9-0.6,13.4-0.9
			c5.6-0.3,11.6-0.9,18.1-1.9c6.5-0.9,12.8-2,19-3.2C-2060.5,271-2024.4,256.2-1991.1,234z"/>
		<path class="st1" d="M-1946.7,520.1c-3.1-4.9-4.9-9.4-5.6-13.4c-0.6-4-1.2-10.3-1.9-19c-1.9-35.8,8-69.7,29.6-101.8
			c13-20.4,27.8-32.4,44.4-36.1c14.2-4.3,27-2.5,38.4,5.6c11.4,8,17.4,19.4,18.1,34.3c0,4.9-0.2,7.9-0.5,8.8c-0.3,0.9-2,1.4-5.1,1.4
			c-3.7,0-6.2-3.1-7.4-9.3c-1.2-5.6-3.7-10.5-7.4-14.8c-3.7-4.3-8-7.1-13-8.3c-6.2-1.2-12.5,0.9-19,6.5
			c-6.5,5.6-12.5,13.6-18.1,24.1c-5.6,10.5-10.5,22.8-14.8,37c-4.3,14.2-7.4,29.6-9.3,46.3c-3.1,26.5-0.9,41.1,6.5,43.5
			c7.4,2.5,21.6-16.7,42.6-57.4c9.9-19.7,17.3-33.5,22.2-41.2c4.9-7.7,8.9-11.6,12-11.6c3.1,0,5.6,1.5,7.4,4.6
			c3.1,3.1,4.6,8.3,4.6,15.7s-1.9,20.1-5.6,38c-4.3,20.4-6.8,36.4-7.4,48.1c-0.6,11.7,0.3,21.9,2.8,30.6c3.1,8.6,5.6,13.7,7.4,15.3
			c1.9,1.5,5.2,0.2,10.2-4.2c11.1-9.9,26.5-39.8,46.3-89.8c6.8-16,11.6-27,14.3-32.9c2.8-5.9,5.1-8.8,6.9-8.8
			c3.7,0,4.9,3.4,3.7,10.2c-1.2,6.8-4.9,18.5-11.1,35.2c-8,21.6-16.7,41.5-25.9,59.7c-9.3,18.2-17,30.7-23.1,37.5
			c-4.9,4.9-8.5,8-10.6,9.3c-2.2,1.2-5.7,1.9-10.6,1.9c-4.3,0-7.6-0.5-9.7-1.4c-2.2-0.9-4.8-2.9-7.9-6
			c-16.7-16.7-22.2-46.9-16.7-90.7c0.6-3.1,0.5-4.2-0.5-3.2c-0.9,0.9-3.6,4.8-7.9,11.6c-10.5,18.5-18.8,31.3-25,38.4
			c-6.2,7.1-13.3,10.6-21.3,10.6C-1926.6,544.1-1937.4,536.1-1946.7,520.1z"/>
		<path class="st1" d="M-1506,435.8c4.3,0,5.7,3.4,4.2,10.2c-1.5,6.8-6.6,19.4-15.3,38c-16.1,35.2-29.8,58.2-41.2,69
			c-11.4,10.8-23,12.2-34.7,4.2c-4.9-3.1-9.4-8.8-13.4-17.1c-4-8.3-7.6-17.7-10.6-28.2c-3.1-11.1-4.2-28.2-3.2-51.4
			c0.9-23.1,3.8-48.3,8.8-75.5c2.5-13,4.3-23,5.6-30.1c1.2-7.1,1.9-12,1.9-14.8s-0.5-4.2-1.4-4.2c-0.9,0-2.3,0.6-4.2,1.9
			c-5.6,3.1-12.8,9.7-21.8,19.9c-9,10.2-18.2,22.5-27.8,37c-9.6,14.5-19,30.4-28.2,47.7c-9.3,17.3-17.3,34.3-24.1,50.9
			c-7.4,17.3-15.4,25.9-24.1,25.9c-11.7,0-19.4-9.9-23.1-29.6c-1.2-5.6-1.4-13.7-0.5-24.5c0.9-10.8,2.3-21.8,4.2-32.9
			c1.9-11.1,4.2-21.3,6.9-30.5c2.8-9.3,5.4-15.4,7.9-18.5c8-6.8,15.1-7.1,21.3-0.9c3.1,3.1,4.9,9.9,5.6,20.4
			c0.6,10.5,0,21.6-1.9,33.3l-1.9,16.7c0.6,0,2.5-2.6,5.6-7.9c3.1-5.2,7.1-11.6,12-19c35.2-56.2,63-92.3,83.3-108.3
			c8.6-6.8,17.3-9.1,25.9-6.9c8.6,2.2,14.8,8.5,18.5,19c0.6,3.1,0.9,8,0.9,14.8c0,6.8-0.2,14.8-0.5,24.1c-0.3,9.3-0.9,19.1-1.9,29.6
			c-0.9,10.5-2.3,21.3-4.2,32.4c-11.1,64.2-11.1,100.6,0,109.2c1.9,1.9,5.1,0.6,9.7-3.7c4.6-4.3,9.7-10.6,15.3-19
			c5.6-8.3,11.3-17.9,17.1-28.7c5.9-10.8,11.3-21.8,16.2-32.9c3.1-8.6,5.4-14,6.9-16.2C-1510.5,436.9-1508.5,435.8-1506,435.8z"/>
		<path class="st1" d="M-1604.2,248.8c-12.3-1.2-21.9-3.1-28.7-5.6c-6.8-2.5-12.6-6.5-17.6-12c-4.3-4.3-7.1-7.7-8.3-10.2
			c-1.2-2.5-1.9-5.9-1.9-10.2c0-5.6,0.9-10,2.8-13.4c1.9-3.4,4.3-4.5,7.4-3.2c2.5,0.6,3.7,4.9,3.7,13c0,4.9,0.5,8.5,1.4,10.6
			c0.9,2.2,2.9,4.8,6,7.9c4.9,4.9,11.7,8,20.4,9.3c8.7,1.2,21.9,1.5,39.8,0.9c9.9-0.6,20.8-1.5,32.9-2.8c12-1.2,23.3-2.6,33.8-4.2
			c10.5-1.5,19.4-3.1,26.8-4.6c7.4-1.5,11.1-2.9,11.1-4.2c6.2-21,10.8-34.4,13.9-40.3c3.1-5.9,6.8-8.8,11.1-8.8
			c4.3,0,7.2,1.7,8.8,5.1c1.5,3.4,2.6,10.3,3.2,20.8c0,4.9,0.3,9.3,0.9,13c0.6,3.7,0.9,5.3,0.9,4.6c4.9-1.2,11.9-2.6,20.8-4.2
			c8.9-1.5,18.2-3.1,27.8-4.6c9.6-1.5,18.5-3.1,26.8-4.6c8.3-1.5,14.7-2.6,19-3.2c38.3-4.9,62.3,1.9,72.2,20.4
			c3.1,4.9,4.8,10,5.1,15.3c0.3,5.3-0.5,7.9-2.3,7.9c-2.5,0-4,0.3-4.6,0.9c-1.9,0-4-3.4-6.5-10.2c-3.1-8-7.1-13.1-12-15.3
			c-4.9-2.2-13.9-3.8-26.8-5.1c-4.9,0-9.6,0-13.9,0c-4.3,0-9.1,0.3-14.4,0.9c-5.3,0.6-11.3,1.4-18.1,2.3c-6.8,0.9-15.1,2.3-25,4.2
			c-13.6,2.5-25.3,4.8-35.2,6.9c-9.9,2.2-15.1,3.6-15.7,4.2c-2.5,1.2-3.7,5.9-3.7,13.9c0,1.9-0.6,5.7-1.9,11.6
			c-1.2,5.9-2.8,13.1-4.6,21.8c-1.9,8.6-3.9,18.4-6,29.2c-2.2,10.8-4.5,22.1-6.9,33.8c-6.8,35.8-12.4,65.7-16.7,89.8
			c-4.3,24.1-7.4,44-9.3,59.7c-1.9,15.7-2.5,27.9-1.9,36.6c0.6,8.6,2.2,15.7,4.6,21.3c7.4,16.1,18.2,16.2,32.4,0.5
			c14.2-15.7,30.2-45.5,48.1-89.3c4.9-13,8.2-20.7,9.7-23.1c1.5-2.5,3.8-3.4,6.9-2.8c3.7,0,6.2,1.2,7.4,3.7c0,1.2-1.5,5.7-4.6,13.4
			c-3.1,7.7-6.6,16.5-10.6,26.4c-4,9.9-8.3,19.9-13,30.1c-4.6,10.2-8.8,18.4-12.5,24.5c-11.7,20.4-22.2,34-31.5,40.7
			c-9.3,6.8-20.4,8.3-33.3,4.6c-12.4-2.5-22.2-11.7-29.6-27.8c-4.9-9.9-8-21-9.3-33.3c-1.2-12.3-0.9-28.2,0.9-47.7
			c1.9-19.4,5.7-44,11.6-73.6c5.9-29.6,13.7-67,23.6-112c3.1-12.3,5.4-22.8,6.9-31.5c1.5-8.6,2.3-13.3,2.3-13.9
			c-2.5,0-4.9,0.3-7.4,0.9c-2.5,0.6-5.4,1.2-8.8,1.9c-3.4,0.6-6.6,1.2-9.7,1.9c-18.5,3.1-37.3,5.4-56.5,6.9
			C-1580.7,249.9-1594.9,250.1-1604.2,248.8z"/>
		<path class="st1" d="M-1368.1,564.5c-12.4-7.4-21.6-19.3-27.8-35.6c-6.2-16.3-8.3-35-6.5-56c0.6-9.9,2.2-21.6,4.6-35.2
			c2.5-13.6,5.4-26.4,8.8-38.4c3.4-12,6.6-22.5,9.7-31.5c3.1-8.9,5.9-14.4,8.3-16.2c3.1-2.5,6.5-3.7,10.2-3.7s6.8,1.5,9.3,4.6
			c3.7,3.7,5.2,10.5,4.6,20.4c-0.6,9.9-3.4,26.5-8.3,50c-14.2,71-13,112,3.7,123.1c1.9,1.2,3.5,1.9,5.1,1.9c1.5,0,3.8-1.2,6.9-3.7
			c3.7-1.9,8.2-6,13.4-12.5c5.2-6.5,10.6-14.2,16.2-23.1c5.6-8.9,10.9-18.8,16.2-29.6c5.2-10.8,10-21.4,14.3-31.9
			c3.1-7.4,5.2-12,6.5-13.9c1.2-1.9,2.8-2.8,4.6-2.8c3.7,0,5.6,1.7,5.6,5.1c0,3.4-2.2,10-6.5,19.9c-9.9,22.8-19.9,43.4-30.1,61.6
			c-10.2,18.2-18.7,30.7-25.5,37.5c-6.8,7.4-14,12-21.8,13.9C-1354.1,570.1-1361.3,568.8-1368.1,564.5z M-1358.8,295.1
			c-4.9-3.7-7.3-9.3-6.9-16.7c0.3-7.4,3.5-14.5,9.7-21.3c5.6-7.4,12.3-8.6,20.4-3.7c2.5,1.9,4,4.9,4.6,9.3c0.6,4.3,0.6,8.8,0,13.4
			c-0.6,4.6-1.9,9-3.7,13c-1.9,4-4,6.6-6.5,7.9C-1348,299.4-1353.9,298.8-1358.8,295.1z"/>
		<path class="st1" d="M-1029.3,435.8c4.3,0,5.7,3.4,4.2,10.2c-1.5,6.8-6.6,19.4-15.3,38c-16.1,35.2-29.8,58.2-41.2,69
			c-11.4,10.8-23,12.2-34.7,4.2c-5-3.1-9.4-8.8-13.4-17.1c-4-8.3-7.6-17.7-10.6-28.2c-3.1-11.1-4.2-28.2-3.2-51.4
			c0.9-23.1,3.8-48.3,8.8-75.5c2.5-13,4.3-23,5.6-30.1c1.2-7.1,1.9-12,1.9-14.8s-0.5-4.2-1.4-4.2c-0.9,0-2.3,0.6-4.2,1.9
			c-5.6,3.1-12.8,9.7-21.8,19.9c-9,10.2-18.2,22.5-27.8,37c-9.6,14.5-19,30.4-28.2,47.7c-9.3,17.3-17.3,34.3-24.1,50.9
			c-7.4,17.3-15.4,25.9-24.1,25.9c-11.7,0-19.4-9.9-23.1-29.6c-1.2-5.6-1.4-13.7-0.5-24.5c0.9-10.8,2.3-21.8,4.2-32.9
			c1.9-11.1,4.2-21.3,6.9-30.5c2.8-9.3,5.4-15.4,7.9-18.5c8-6.8,15.1-7.1,21.3-0.9c3.1,3.1,4.9,9.9,5.6,20.4
			c0.6,10.5,0,21.6-1.9,33.3l-1.9,16.7c0.6,0,2.5-2.6,5.6-7.9c3.1-5.2,7.1-11.6,12-19c35.2-56.2,63-92.3,83.3-108.3
			c8.6-6.8,17.3-9.1,25.9-6.9c8.6,2.2,14.8,8.5,18.5,19c0.6,3.1,0.9,8,0.9,14.8c0,6.8-0.2,14.8-0.5,24.1c-0.3,9.3-0.9,19.1-1.9,29.6
			c-0.9,10.5-2.3,21.3-4.2,32.4c-11.1,64.2-11.1,100.6,0,109.2c1.9,1.9,5.1,0.6,9.7-3.7c4.6-4.3,9.7-10.6,15.3-19
			c5.6-8.3,11.3-17.9,17.1-28.7c5.9-10.8,11.3-21.8,16.2-32.9c3.1-8.6,5.4-14,6.9-16.2C-1033.7,436.9-1031.7,435.8-1029.3,435.8z"/>
		<path class="st1" d="M-1044.1,539.5c-3.1-1.2-5.2-2.6-6.5-4.2c-1.2-1.5-2.2-4.3-2.8-8.3c-0.6-4-0.6-9.4,0-16.2
			c0.6-6.8,1.8-15.7,3.7-26.8c10.5-69.1,20.1-125.3,28.7-168.5c8.6-43.2,17-75.6,25-97.2c1.2-4.9,3.7-11.4,7.4-19.4
			c3.7-8,7.1-15.4,10.2-22.2c6.8-13,13.6-23.3,20.4-31c6.8-7.7,14.5-14.3,23.1-19.9c13-8,26.4-8.9,40.3-2.8
			c13.9,6.2,25.1,17.3,33.8,33.3c11.1,21.6,13.7,46.1,7.9,73.6c-5.9,27.5-19.9,56.9-42.1,88.4c-4.9,6.8-11.1,14.5-18.5,23.1
			c-7.4,8.6-15.1,17.1-23.1,25.5c-8,8.3-15.9,16.1-23.6,23.1c-7.7,7.1-14.7,12.8-20.8,17.1c-4.9,3.7-9.6,7.1-13.9,10.2
			c-4.3,3.1-7.1,5.3-8.3,6.5c-1.2,1.2-2.5,4.3-3.7,9.3c-1.2,4.9-2.8,12.7-4.6,23.1c-1.2,8.6-2.5,16.4-3.7,23.1
			c-1.2,6.8-1.9,11.1-1.9,13c-1.2,5.6,3.7-0.9,14.8-19.4c17.3-25.9,33.8-48.6,49.5-68c15.7-19.4,28.8-32.5,39.3-39.3
			c17.9-11.1,30.2-8,37,9.3c3.7,10.5,1.9,37.3-5.6,80.5c-4.9,27.2-7.7,50.8-8.3,70.8c-0.6,20.1,1.2,32.6,5.6,37.5
			c3.1,4.9,5.7,7.3,7.9,6.9c2.2-0.3,5.7-3.2,10.6-8.8c11.7-12.3,26.2-41,43.5-86.1c3.7-9.9,6.8-17.7,9.3-23.6
			c2.5-5.9,4.5-10.3,6-13.4c1.5-3.1,2.8-4.9,3.7-5.6c0.9-0.6,2.3-0.9,4.2-0.9c3.1,0,4.6,1.9,4.6,5.6s-2.2,10.8-6.5,21.3
			c-3.1,5.6-6,12.2-8.8,19.9c-2.8,7.7-5.4,14.3-7.9,19.9c-8,20.4-15.1,37-21.3,50c-6.2,13-12.2,22.8-18.1,29.6
			c-5.9,6.8-11.7,10.8-17.6,12c-5.9,1.2-11.9,0.3-18.1-2.8c-6.8-3.1-12.8-9.4-18.1-19c-5.3-9.6-9.1-20.5-11.6-32.9
			c-1.2-4.3-1.9-8.8-1.9-13.4s0.5-10.8,1.4-18.5c0.9-7.7,2.3-17.3,4.2-28.7c1.8-11.4,4.3-25.8,7.4-43.1c3.1-13.6,5.4-25.1,6.9-34.7
			c1.5-9.6,2.3-14.7,2.3-15.3c0-2.5-2.6-1.9-7.9,1.9c-5.3,3.7-10.6,8.6-16.2,14.8c-8.7,9.3-19,22.1-31,38.4
			c-12,16.4-25.2,35.3-39.3,56.9c-14.2,21.6-24.1,35.2-29.6,40.7C-1032,540.4-1037.9,542-1044.1,539.5z M-977.4,259
			c-1.2,6.8-3.2,17.4-6,31.9c-2.8,14.5-5.6,29.6-8.3,45.4c-2.8,15.7-5.3,29.9-7.4,42.6c-2.2,12.7-3.2,20.2-3.2,22.7
			c0,3.1,4.6,0.9,13.9-6.5c9.3-7.4,22.5-19.7,39.8-37c25.9-25.9,45.5-50.3,58.8-73.1c13.3-22.8,21.4-46,24.5-69.4
			c1.2-8,1.1-16.3-0.5-25c-1.5-8.6-4.2-16.5-7.9-23.6c-3.7-7.1-8.2-13.1-13.4-18.1c-5.3-4.9-10.6-8-16.2-9.3
			c-13-2.5-26.1,7.1-39.3,28.7C-956,189.9-967.6,220.1-977.4,259z"/>
		<path class="st1" d="M-770,509.9c-8-3.7-15.1-9.1-21.3-16.2c-6.2-7.1-10.5-14.4-13-21.8c-4.9-15.4-5.1-32.1-0.5-50
			c4.6-17.9,12.2-32.4,22.7-43.5c4.9-4.9,8.8-8.2,11.6-9.7c2.8-1.5,5.7-2.3,8.8-2.3c10.5,0,15.7,3.7,15.7,11.1
			c0,1.2-0.8,3.1-2.3,5.6c-1.5,2.5-3.2,5.3-5.1,8.3c-6.8,9.3-11.9,21.5-15.3,36.6c-3.4,15.1-3.9,28.2-1.4,39.3
			c1.2,8.6,5.9,15.9,13.9,21.8c8,5.9,15.7,7.6,23.1,5.1l7.4-3.7l-6.5-14.8c-8-15.4-10.5-34.3-7.4-56.5c3.1-23.4,9.7-41.5,19.9-54.2
			c10.2-12.6,22.4-19,36.6-19c16.7,0,26.5,8.3,29.6,25c3.1,16.7-1.2,38.9-13,66.7c-2.5,4.9-5.1,10.5-7.9,16.7
			c-2.8,6.2-5.7,11.1-8.8,14.8c-2.5,3.7-4.5,7.1-6,10.2c-1.5,3.1-2,5.3-1.4,6.5c0,1.2,0.9,2.5,2.8,3.7c1.9,1.2,3.7,2.2,5.6,2.8
			c3.1,1.9,5.6,2.9,7.4,3.2c1.9,0.3,4.6-0.1,8.3-1.4c6.2-1.9,13.3-6.8,21.3-14.8c8-8,14.8-17.3,20.4-27.8c3.7-6.8,6.5-11.3,8.3-13.4
			c1.9-2.2,3.7-3.2,5.6-3.2c4.3,0,6,1.9,5.1,5.6c-0.9,3.7-4.8,11.1-11.6,22.2c-8,13-15.3,23-21.8,30.1c-6.5,7.1-13.7,12.5-21.8,16.2
			c-14.2,6.2-28.4,6.2-42.6,0c-4.3-2.5-7.4-3.7-9.3-3.7c-1.9,0-5.3,1.5-10.2,4.6c-7.4,3.1-15.4,4.6-24.1,4.6
			C-755.6,514.5-763.3,513-770,509.9z M-696,389.5c-1.9,4.9-3.6,10.8-5.1,17.6c-1.6,6.8-2.5,13.9-2.8,21.3c-0.3,7.4-0.3,14.5,0,21.3
			c0.3,6.8,1.1,12,2.3,15.7c0.6,3.1,2.5,2.5,5.6-1.9c1.2-1.2,3.2-4.3,6-9.3c2.8-4.9,5.7-10.5,8.8-16.7
			c11.1-22.8,15.7-40.7,13.9-53.7c-1.8-11.1-5.7-16-11.6-14.8C-684.7,370.4-690.4,377.2-696,389.5z"/>
	</g>
	<g>
		
			<text transform="matrix(1 0 0 1 -1836.0078 118.8984)" style="fill:#D9ABA3; font-family:'AvenirNext-Regular'; font-size:147.6782px;">LOJAS</text>
	</g>
</g>
<rect x="2471" y="487" class="st2" width="479" height="255"/>
</svg>
